<?xml version="1.0" encoding="UTF-8"?>
<svg xmlns="http://www.w3.org/2000/svg" viewBox="0 0 512 512" width="512" height="512">
  <!-- Triflouze App Icon — T-balance -->

  <!-- Background: sage green rounded square -->
  <rect x="0" y="0" width="512" height="512" rx="112" ry="112" fill="#6B9E7A"/>

  <!-- Vertical stem -->
  <rect x="216" y="140" width="80" height="272" rx="36" fill="white"/>

  <!-- Tilted crossbar — 12° clockwise around (256, 140)
       Left pill center after rotation: (123, 168)  → lowest point (123, 208)
       Right pill center after rotation: (389, 112) → lowest point (389, 152) -->
  <rect x="80" y="100" width="352" height="80" rx="40" fill="white"
        transform="rotate(12, 256, 140)"/>

  <!-- Left chain — from lowest point of left pill (123, 208) down to coin -->
  <line x1="123" y1="208" x2="123" y2="258" stroke="white" stroke-width="11" stroke-linecap="round"/>

  <!-- Right chain — from lowest point of right pill (389, 152) down to bill -->
  <line x1="389" y1="152" x2="389" y2="228" stroke="white" stroke-width="11" stroke-linecap="round"/>

  <!-- Left coin (lower — heavier side) -->
  <circle cx="123" cy="306" r="48" fill="#E8B86D"/>
  <circle cx="123" cy="306" r="34" fill="none" stroke="white" stroke-width="5"/>

  <!-- Right banknote (higher — lighter side) -->
  <!-- Outer bill: 92×58, centred on chain x=389 -->
  <rect x="343" y="228" width="92" height="58" rx="9" fill="#E8B86D"/>
  <!-- Inner border frame -->
  <rect x="350" y="235" width="78" height="44" rx="6" fill="none" stroke="white" stroke-width="3.5"/>
  <!-- Portrait oval (left zone) -->
  <ellipse cx="369" cy="257" rx="12" ry="15" fill="none" stroke="white" stroke-width="3"/>
  <!-- Value lines (right zone) -->
  <line x1="389" y1="248" x2="425" y2="248" stroke="white" stroke-width="3" stroke-linecap="round"/>
  <line x1="389" y1="257" x2="425" y2="257" stroke="white" stroke-width="3" stroke-linecap="round"/>
  <line x1="389" y1="266" x2="425" y2="266" stroke="white" stroke-width="3" stroke-linecap="round"/>
</svg>
